<?xml version="1.0" standalone="no"?><!DOCTYPE svg PUBLIC "-//W3C//DTD SVG 1.1//EN" "http://www.w3.org/Graphics/SVG/1.1/DTD/svg11.dtd"><svg t="1521121439091" class="icon" style="" viewBox="0 0 1024 1024" version="1.1" xmlns="http://www.w3.org/2000/svg" p-id="2002" xmlns:xlink="http://www.w3.org/1999/xlink" width="200" height="200"><defs><style type="text/css"></style></defs><path d="M512 0C229.24 0 0 229.24 0 512s229.24 512 512 512 512-229.24 512-512S794.76 0 512 0z m0 955.733C266.94 955.733 68.267 757.06 68.267 512S266.94 68.267 512 68.267c64.034 0 124.757 13.84 179.73 38.246l-315.58 315.58 217.224 217.224L911.94 320.751c27.785 57.975 43.793 122.658 43.793 191.249 0 245.06-198.673 443.733-443.733 443.733zM291.652 724.156l277.863-60.672-217.174-217.19-60.689 277.862z" p-id="2003"></path></svg>