<?xml version="1.0" standalone="no"?><!DOCTYPE svg PUBLIC "-//W3C//DTD SVG 1.1//EN" "http://www.w3.org/Graphics/SVG/1.1/DTD/svg11.dtd"><svg t="1521121441630" class="icon" style="" viewBox="0 0 1137 1024" version="1.1" xmlns="http://www.w3.org/2000/svg" p-id="2126" xmlns:xlink="http://www.w3.org/1999/xlink" width="222.0703125" height="200"><defs><style type="text/css"></style></defs><path d="M1080.889 438.044c-5.689 0-11.378 0-17.067 5.69l-489.244 199.11-489.245-199.11c-5.689-5.69-11.377-5.69-22.755-5.69-28.445 0-51.2 22.756-51.2 51.2 0 17.067 11.378 39.823 34.133 45.512l512 210.488c5.689 5.69 11.378 5.69 17.067 5.69s11.378 0 17.066-5.69l512-210.488c22.756-5.69 34.134-22.756 28.445-45.512 0-28.444-22.756-51.2-51.2-51.2z" p-id="2127"></path><path d="M1075.2 659.911c-5.689 0-11.378 0-17.067 5.689L568.89 870.4 79.644 671.289c-5.688-5.689-11.377-5.689-17.066-5.689-28.445 0-51.2 22.756-62.578 51.2 0 17.067 11.378 39.822 34.133 45.511l512 210.489c5.69 5.689 11.378 5.689 17.067 5.689s11.378 0 17.067-5.689l512-210.489c17.066-5.689 34.133-22.755 34.133-45.511 0-28.444-22.756-56.889-51.2-56.889zM45.511 307.2l512 210.489c5.689 5.689 11.378 5.689 17.067 5.689s11.378 0 17.066-5.69l512-210.488c17.067-5.689 34.134-22.756 34.134-45.511s-17.067-34.133-34.134-45.511l-512-210.49C585.956 0 580.267 0 574.578 0c-5.69 0-17.067 0-17.067 5.689l-512 210.489c-22.755 5.689-34.133 28.444-34.133 45.51S22.756 301.512 45.51 307.2z" p-id="2128"></path></svg>