<?xml version="1.0" standalone="no"?><!DOCTYPE svg PUBLIC "-//W3C//DTD SVG 1.1//EN" "http://www.w3.org/Graphics/SVG/1.1/DTD/svg11.dtd"><svg t="1521121452934" class="icon" style="" viewBox="0 0 1024 1024" version="1.1" xmlns="http://www.w3.org/2000/svg" p-id="2626" xmlns:xlink="http://www.w3.org/1999/xlink" width="200" height="200"><defs><style type="text/css"></style></defs><path d="M396.33806222 60.95644445H64.77027555c-18.14414222 0-33.05699555 14.66481778-33.05699555 33.05699555v350.70634667c0 18.39217778 14.91285333 33.05699555 33.05699555 33.05699555h331.31861334c18.39217778 0 33.05699555-14.91285333 33.05699556-33.05699555V94.01344c0.24917333-18.39217778-14.66481778-33.05699555-32.80896-33.05699555z m0 530.15893333H64.77027555c-18.39217778 0-33.05699555 14.91285333-33.05699555 33.05699555v331.56778667c0 18.39217778 14.91285333 33.05699555 33.05699555 33.05699555h331.31861334c18.39217778 0 33.05699555-14.91285333 33.05699556-33.05699555V624.17237333c0.24917333-18.14414222-14.66481778-33.05699555-32.80896-33.05699555z m530.16007111 0H595.17952c-18.39217778 0-33.05699555 14.91285333-33.05699555 33.05699555v331.56778667c0 18.39217778 14.91285333 33.05699555 33.05699555 33.05699555h331.31861333c18.39217778 0 33.05699555-14.91285333 33.05699556-33.05699555V624.17237333c0-18.14414222-14.66481778-33.05699555-33.05699556-33.05699555z m68.35086222-374.56554667L803.96174222 25.66257778c-12.17877333-12.17877333-28.33408-18.89052445-45.48494222-18.89052445s-33.30616889 6.71175111-45.48494222 18.89052445L522.10460445 216.54983111c-12.17877333 12.17877333-18.89052445 28.33408-18.89052445 45.48494222s6.71175111 33.30616889 18.89052445 45.48494222l190.88725333 190.88725334c12.17877333 12.17877333 28.33408 18.89052445 45.48494222 18.89052444s33.30616889-6.71175111 45.48494222-18.89052444l190.88725333-190.88725334c25.10392889-25.10392889 25.10392889-65.86595555 0-90.96988444zM758.4768 438.25720889L582.25436445 262.03477333 758.4768 85.81233778l176.22243555 176.22243555L758.4768 438.25720889z" p-id="2627"></path></svg>