<?xml version="1.0" standalone="no"?><!DOCTYPE svg PUBLIC "-//W3C//DTD SVG 1.1//EN" "http://www.w3.org/Graphics/SVG/1.1/DTD/svg11.dtd"><svg t="1521121444149" class="icon" style="" viewBox="0 0 1024 1024" version="1.1" xmlns="http://www.w3.org/2000/svg" p-id="2251" xmlns:xlink="http://www.w3.org/1999/xlink" width="200" height="200"><defs><style type="text/css"></style></defs><path d="M902.41365333 142.69781333c-120.57372445 0-238.18922667-42.00220445-331.19232-118.25607111l-46.57379555-38.19178667-46.592 38.19178667c-93.03836445 76.24817778-210.66524445 118.25607111-331.19914667 118.25607111H73.38666667v495.40551112l5.632 13.54979555c76.61795555 184.12430222 235.00458667 329.25240889 423.69024 388.23480889l21.71107555 6.79253333 21.75203556-6.67534222c193.50869333-59.35559111 348.15089778-201.15911111 424.30008889-389.00508445l5.26677333-13.01390222 0.09898667-14.05155555 0.03413333-3.72053333V142.69667555h-73.45834667z m0 476.9792l-0.03413333 3.71143112c-66.96391111 165.22581333-205.79555555 293.62403555-377.74449778 346.38506666C355.86275555 916.98972445 214.17528889 785.17703111 146.85639111 623.42257778V216.18460445c143.35203555 0 274.91328-50.58787555 377.77863111-134.90517334 102.85966222 84.34119111 234.36288 134.90631111 377.77863111 134.90631111v403.49127111z" p-id="2252"></path><path d="M385.11047111 276.42538667c65.62929778 2.94229333 99.88323555 45.22325333 102.81870222 126.87815111-2.93546667 80.22129778-38.65713778 121.78090667-107.19345778 124.69361777-62.71658667-4.38044445-96.24803555-45.94005333-100.6227911-124.69361777 2.90702222-81.65489778 37.90620445-123.93585778 104.99754666-126.87815111z m-2.18453333 199.06673778c30.62442667-1.4336 46.66140445-26.24853333 48.13027555-74.3788089-1.46773333-48.12458667-16.77767111-72.91107555-45.94005333-74.37880888-32.09216 0-48.12344889 25.53173333-48.12344889 76.56334222 1.4336 45.22780445 16.74808889 69.28725333 45.93322667 72.19427556z m236.25614222-199.0656h59.06432L428.86485333 751.12675555h-59.06318222l249.38040889-474.70250666z m45.93891555 227.50549333c65.62929778 2.94115555 99.88323555 45.93891555 102.81301334 129.06154667-2.93546667 75.84768-38.65713778 115.18634667-107.18776889 118.12864-64.19000889-4.37475555-97.71576889-43.75552-100.62848-118.12864 2.91271111-81.66058667 37.91189333-124.68679111 105.00323555-129.06154667z m-2.19022222 201.25696c29.16124445-1.4336 44.47687111-26.97784889 45.94574222-76.57016889-1.46773333-46.66026667-16.06656-70.72654222-43.75552-72.19427556-30.62442667 0-46.69098667 24.82176-48.12913777 74.38449778 1.44497778 46.69098667 16.75377778 71.46723555 45.93891555 74.37994667z" p-id="2253"></path></svg>