<?xml version="1.0" standalone="no"?><!DOCTYPE svg PUBLIC "-//W3C//DTD SVG 1.1//EN" "http://www.w3.org/Graphics/SVG/1.1/DTD/svg11.dtd"><svg t="1521121433935" class="icon" style="" viewBox="0 0 1024 1024" version="1.1" xmlns="http://www.w3.org/2000/svg" p-id="1878" xmlns:xlink="http://www.w3.org/1999/xlink" width="200" height="200"><defs><style type="text/css"></style></defs><path d="M509.95996445 255.27182222c70.10986667 0 126.94641778-56.83541333 126.94641777-126.94641777 0-70.10986667-56.83541333-126.94528-126.94641777-126.94528-70.10986667 0-126.94528 56.83541333-126.94528 126.94528 0 70.10986667 56.83655111 126.94641778 126.94528 126.94641777z m0-190.25806222c34.91043555 0 63.31278222 28.40234667 63.31278222 63.31278222s-28.40120889 63.31392-63.31278222 63.31392c-34.91043555 0-63.31164445-28.40234667-63.31164445-63.31392s28.40120889-63.31278222 63.31164445-63.31278222z m-381.73582223 527.27125333c-70.10986667 0-126.94528 56.83541333-126.94528 126.94641778 0 70.10986667 56.83541333 126.94641778 126.94528 126.94641778s126.94641778-56.83655111 126.94641778-126.94641778-56.83541333-126.94641778-126.94641778-126.94641778z m0 190.25806222c-34.90929778 0-63.31278222-28.40120889-63.31278222-63.31278222 0-34.91043555 28.40234667-63.31278222 63.31278222-63.31278222s63.31278222 28.40120889 63.31278223 63.31278222-28.40234667 63.31278222-63.31278223 63.31278222zM891.96088889 592.28501333c-70.10986667 0-126.94528 56.83541333-126.94528 126.94641778 0 70.10986667 56.83541333 126.94641778 126.94528 126.94641778s126.94641778-56.83655111 126.94641778-126.94641778-56.83541333-126.94641778-126.94641778-126.94641778z m0 190.25806222c-34.91043555 0-63.31278222-28.40120889-63.31278222-63.31278222 0-34.91043555 28.40234667-63.31278222 63.31278222-63.31278222s63.31392 28.40120889 63.31392 63.31278222-28.40348445 63.31278222-63.31392 63.31278222zM509.07022222 930.26531555c-90.69681778 0-179.09304889-31.73944889-248.89457777-89.34513777l-40.51740445 49.06097777c81.18954667 67.01966222 183.97184 103.91665778 289.41084445 103.91665778 106.34012445 0 209.80622222-37.47157333 291.32117333-105.50158222l-40.76544-48.84252444c-70.10986667 58.49088-159.08295111 90.71160889-250.55459556 90.71160888z m391.33866667-391.33866666h63.63363556c0-176.15872-103.20213333-338.09976889-262.9381689-412.56163556l-26.87658666 57.66826667c137.39576889 64.06826667 226.18225778 203.35957333 226.18225778 354.89223111zM343.91381333 184.03214222l-26.87658666-57.66826667C157.31484445 200.82688 54.11271111 362.76906667 54.11271111 538.92551111h63.63363556c0-151.53265778 88.78535111-290.83989333 226.16632888-354.89223111z" p-id="1879"></path></svg>