<?xml version="1.0" standalone="no"?><!DOCTYPE svg PUBLIC "-//W3C//DTD SVG 1.1//EN" "http://www.w3.org/Graphics/SVG/1.1/DTD/svg11.dtd"><svg t="1521121446813" class="icon" style="" viewBox="0 0 1024 1024" version="1.1" xmlns="http://www.w3.org/2000/svg" p-id="2376" xmlns:xlink="http://www.w3.org/1999/xlink" width="200" height="200"><defs><style type="text/css"></style></defs><path d="M480.89315555 482.79324445l165.52391112 165.52391111a15.2576 15.2576 0 0 0 21.61777778 0l21.61777777-21.61777778a15.2576 15.2576 0 0 0 0-21.61777778L524.04906667 439.63733334a91.57973333 91.57973333 0 0 0-122.09493334-122.09493334l61.04177778 61.04177778L419.84 421.75146667l-61.04177778-61.04177778a91.57973333 91.57973333 0 0 0 122.09493333 122.08355556z" p-id="2377"></path><path d="M948.90666667 126.57777778H75.09333333a73.03395555 73.03395555 0 0 0-72.81777778 72.81777778v582.54222222a73.03395555 73.03395555 0 0 0 72.81777778 72.81777778h218.45333334v72.81777778h436.90666666v-72.81777778h218.45333334a73.03395555 73.03395555 0 0 0 72.81777778-72.81777778V199.39555556a73.03395555 73.03395555 0 0 0-72.81777778-72.81777778z m0 655.36H75.09333333V199.39555556h873.81333334z" p-id="2378"></path></svg>