<?xml version="1.0" standalone="no"?><!DOCTYPE svg PUBLIC "-//W3C//DTD SVG 1.1//EN" "http://www.w3.org/Graphics/SVG/1.1/DTD/svg11.dtd"><svg t="1521121431538" class="icon" style="" viewBox="0 0 1024 1024" version="1.1" xmlns="http://www.w3.org/2000/svg" p-id="1754" xmlns:xlink="http://www.w3.org/1999/xlink" width="200" height="200"><defs><style type="text/css"></style></defs><path d="M520 24C257.59999999 24 40 241.60000001 40 504s217.6 480 480 480 480-217.6 480-480S782.39999999 24 520 24z m204.79999999 614.4c19.2 19.2 19.2 44.8 0 64.00000001-19.2 19.2-44.8 19.2-64 0L526.39999999 568.00000001 385.6 708.80000001c-19.2 19.2-51.2 19.2-70.40000001 0-19.2-19.2-19.2-51.2 0-70.40000001L455.99999999 497.60000001 321.59999999 363.20000001c-19.2-19.2-19.2-44.8 0-64 19.2-19.2 44.8-19.2 64.00000001 0L520 433.60000001l140.79999999-140.80000001c19.2-19.2 51.2-19.2 70.40000001 0 19.2 19.2 19.2 51.2 0 70.40000001L590.39999999 504l134.4 134.4z" p-id="1755"></path></svg>