<?xml version="1.0" standalone="no"?><!DOCTYPE svg PUBLIC "-//W3C//DTD SVG 1.1//EN" "http://www.w3.org/Graphics/SVG/1.1/DTD/svg11.dtd"><svg t="1521121406124" class="icon" style="" viewBox="0 0 1024 1024" version="1.1" xmlns="http://www.w3.org/2000/svg" p-id="863" xmlns:xlink="http://www.w3.org/1999/xlink" width="200" height="200"><defs><style type="text/css"></style></defs><path d="M502.78248297 602.0998637c92.22371555 0 167.04762311-39.354368 167.04762311-86.99297185 0-12.42756741-5.12637155-24.85513482-14.3438886-35.21103644-25.63185778 30.03247882-85.07665067 51.78072178-152.70373451 51.78072177-68.66230992 0-127.09736297-21.74824297-152.70373452-51.78072177-9.21630341 10.35590163-14.34267497 22.78346903-14.34267497 35.21103644 0 47.63860385 74.82390755 86.99297185 167.04640949 86.99297185" p-id="864"></path><path d="M505.83840237 304.873472c96.23597511 0 174.24444682 40.33862163 174.24444681 90.0998637s-78.0084717 90.0998637-174.24444681 90.09986371c-96.21048889 0-174.21896059-40.337408-174.21896059-90.09986371s78.0084717-90.0998637 174.24444681-90.0998637m-0.02548622 340.72287763c-71.71822933 0-134.24442785-22.78346903-160.88602548-54.88882726-9.21630341 10.35711525-13.33293511 22.78468267-13.33293511 35.21225008 0 49.71026963 77.90531318 90.0998637 174.24444681 90.0998637 96.31364741 0 174.21896059-40.38959408 174.21896059-90.0998637 0-12.42756741-5.12637155-24.85513482-13.33414873-35.21225008-26.66708385 32.10535822-89.16779615 54.88882725-160.88481186 54.88882726" p-id="865"></path><path d="M499.70229097 850.65121185c-180.38177185 0-326.92269511-148.09558282-326.92269512-330.36576237s146.54092325-330.366976 326.92269512-330.366976c180.38055822 0 326.92269511 148.09558282 326.92269511 330.366976S680.08284918 850.65121185 499.70229097 850.65121185m482.70662162-351.07877926H859.42818133c-9.21751703-180.19972741-148.61258903-326.22364445-325.91295525-342.79332977-6.13611141-1.0364397-12.29770903-1.0364397-18.43503408-2.07166579v-114.95499851c0-10.35590163-5.12515792-19.67657718-15.37790103-19.67657719s-15.37911467 8.28423585-15.37911467 19.67657719v114.95499851c-7.17255111 0-14.34388859 1.03522608-20.48 2.07166579-9.24300325 1.03522608-19.49574637 2.07045215-28.71326341 4.14211793h-2.04496592c-4.08993185 1.03522608-7.17255111 1.03522608-11.26248297 2.07166577-3.10689185 1.03522608-5.12637155 1.03522608-8.20777718 2.07045215-2.07045215 0-4.08993185 1.0364397-6.16159764 1.0364397-5.10088533 1.03522608-9.21751703 2.07045215-13.30744888 4.14211793h-1.03643971c-22.52496592 7.24900978-43.03045215 15.53445925-63.53593837 26.92680059-1.03522608 1.03522608-3.080192 1.03522608-4.08993185 2.07045214-3.08140563 2.07166578-6.16281125 3.10689185-9.21751704 5.17855764l-9.24300325 6.2137837c-1.03522608 0-2.04496592 1.03522608-2.04496593 1.03522608C210.68367645 272.76932741 147.14652445 378.40365037 141.01162667 498.53720652h-101.46671882c-10.25274311 0-19.46904652 5.177344-19.46904652 15.53445926 0 10.35590163 8.20656355 15.53445925 19.46904652 15.53445925h101.46671882c6.13611141 189.52040297 156.79366637 342.79332978 343.28484978 350.04233956v100.45697896c0 10.35590163 5.12637155 19.67657718 15.37911466 19.6765772s15.37911467-8.28544948 15.37911467-19.6765772V881.72013037c187.52762311-8.28544948 337.17543822-160.52315022 344.34798933-350.04355319h121.97099141c9.21751703 0 16.41434075-6.2137837 16.41434073-15.53445926 1.0364397-10.35590163-6.16159763-16.56968533-15.37911466-16.56968533" p-id="866"></path></svg>