<?xml version="1.0" standalone="no"?><!DOCTYPE svg PUBLIC "-//W3C//DTD SVG 1.1//EN" "http://www.w3.org/Graphics/SVG/1.1/DTD/svg11.dtd"><svg t="1521121419483" class="icon" style="" viewBox="0 0 1024 1024" version="1.1" xmlns="http://www.w3.org/2000/svg" p-id="1504" xmlns:xlink="http://www.w3.org/1999/xlink" width="200" height="200"><defs><style type="text/css"></style></defs><path d="M512 1024C229.24 1024 0 794.76 0 512S229.24 0 512 0s512 229.24 512 512-229.24 512-512 512z m289.473-315.346L663.962 570.869s-16.748-13.995-5.416-31.744a223.619 223.619 0 0 0 17.522-86.927c0-124.063-100.42-224.642-224.256-224.642a220.729 220.729 0 0 0-61.486 8.783c-16.725 5.78-4.847 17.977-4.847 17.977l103.31 103.47a85.22 85.22 0 0 1 0 120.376l-10.012 10.013a84.855 84.855 0 0 1-120.15 0l-104.925-105.13s-10.764-9.012-16.498 4.55a222.345 222.345 0 0 0-9.648 64.626c0 124.063 100.397 224.666 224.256 224.666a222.868 222.868 0 0 0 93.98-20.685c12.902-6.69 22.528 4.324 22.528 4.324L708.836 801.45a60.302 60.302 0 0 0 51.655 17.09s47.331-4.256 57.89-57.117a60.553 60.553 0 0 0-16.908-52.793z" p-id="1505"></path></svg>