<?xml version="1.0" standalone="no"?><!DOCTYPE svg PUBLIC "-//W3C//DTD SVG 1.1//EN" "http://www.w3.org/Graphics/SVG/1.1/DTD/svg11.dtd"><svg t="1521121416563" class="icon" style="" viewBox="0 0 1024 1024" version="1.1" xmlns="http://www.w3.org/2000/svg" p-id="1380" xmlns:xlink="http://www.w3.org/1999/xlink" width="200" height="200"><defs><style type="text/css"></style></defs><path d="M512 10.239c-277.123 0-501.76 224.643-501.76 501.76 0 277.118 224.637 501.76 501.76 501.76 277.112 0 501.76-224.642 501.76-501.76 0-277.117-224.648-501.76-501.76-501.76z m312.652 378.603L473.529 727.421a56.33 56.33 0 0 1-15.574 11.021c-22.05 15.754-52.878 13.745-72.674-6.054L234.497 581.601c-22.049-22.048-22.049-57.786 0-79.825 22.037-22.05 57.777-22.05 79.825 0l113.207 113.202L744.825 309.01c22.046-22.043 57.788-22.043 79.825 0 22.05 22.045 22.05 57.787 0.002 79.831z" p-id="1381"></path></svg>