<?xml version="1.0" standalone="no"?><!DOCTYPE svg PUBLIC "-//W3C//DTD SVG 1.1//EN" "http://www.w3.org/Graphics/SVG/1.1/DTD/svg11.dtd"><svg t="1521121414301" class="icon" style="" viewBox="0 0 1024 1024" version="1.1" xmlns="http://www.w3.org/2000/svg" p-id="1256" xmlns:xlink="http://www.w3.org/1999/xlink" width="200" height="200"><defs><style type="text/css"></style></defs><path d="M0 371.2v275.2h1024V371.2H0z m454.4 211.2H76.8V448h377.6v134.4zM928 569.6H672v-44.8h256v44.8zM1024 0H0v275.2h1024V0zM454.4 204.8H76.8v-128h377.6v128z m480-38.4h-256v-51.2h256v51.2zM0 1024h1024V748.8H0V1024z m908.8-198.4H960v128h-44.8v-128h-6.4z m-89.6 0H864v128h-44.8v-128z m-83.2 0h44.8v128H736v-128z m-89.6 0h44.8v128h-44.8v-128zM512 812.8c38.4 0 70.4 32 70.4 70.4 0 44.8-32 70.4-70.4 70.4s-70.4-32-70.4-70.4 32-70.4 70.4-70.4z m-185.6 12.8h44.8v128h-44.8v-128z m-89.6 0h44.8v128h-44.8v-128z m-83.2 0h44.8v128h-44.8v-128z m-89.6 0h44.8v128H64v-128z" p-id="1257"></path></svg>